<?xml version="1.0" standalone="no"?><!DOCTYPE svg PUBLIC "-//W3C//DTD SVG 1.1//EN" "http://www.w3.org/Graphics/SVG/1.1/DTD/svg11.dtd"><svg t="1707999801787" class="icon" viewBox="0 0 1024 1024" version="1.1" xmlns="http://www.w3.org/2000/svg" p-id="3282" xmlns:xlink="http://www.w3.org/1999/xlink" width="200" height="200"><path d="M868.48 105.92h-251.2c3.52-5.44 5.44-11.52 5.44-17.92 0-31.04-45.12-56-100.48-56-55.68 0-100.48 24.96-100.48 56 0 6.4 1.92 12.48 5.44 17.92H175.36c-32.96 0-60.16 26.88-60.16 60.16v782.72c0 32.96 26.88 60.16 60.16 60.16h693.12c33.28 0 60.16-26.88 60.16-60.16V166.08c0-33.28-26.88-60.16-60.16-60.16z m-281.28 71.36c0 1.6 0 2.88-0.32 4.48a67.168 67.168 0 0 1-66.88 62.72c-35.52 0-64.64-27.84-66.88-62.72-0.32-1.28-0.32-2.88-0.32-4.48 0-3.84 0.32-7.68 0.96-11.2 1.92-11.52 6.72-22.4 14.08-31.36 12.48-15.04 31.36-24.64 52.16-24.64 21.44 0 40.64 9.92 52.8 25.6 6.72 8.64 11.52 18.88 13.12 30.08 0.96 3.84 1.28 7.68 1.28 11.52z m265.6 755.52H191.04V181.76h157.76v96.32h346.56V181.76h157.76v751.04z" fill="#06A8F5" p-id="3283"></path></svg>